<?xml version="1.0" encoding="UTF-8" standalone="no"?>
<!DOCTYPE svg PUBLIC "-//W3C//DTD SVG 1.1//EN"
 "http://www.w3.org/Graphics/SVG/1.1/DTD/svg11.dtd">
<!-- Generated by graphviz version 14.1.1 (20251213.1925)
 -->
<!-- Title: packages Pages: 1 -->
<svg width="592pt" height="907pt"
 viewBox="0.00 0.00 592.00 907.00" xmlns="http://www.w3.org/2000/svg" xmlns:xlink="http://www.w3.org/1999/xlink">
<g id="graph0" class="graph" transform="scale(1 1) rotate(0) translate(4 903)">
<title>packages</title>
<polygon fill="white" stroke="none" points="-4,4 -4,-903 588.25,-903 588.25,4 -4,4"/>
<g id="clust1" class="cluster">
<title>cluster_apps</title>
<polygon fill="#90ee90" fill-opacity="0.133333" stroke="#90ee90" points="174.5,-306 174.5,-432 256.5,-432 256.5,-306 174.5,-306"/>
<text xml:space="preserve" text-anchor="middle" x="215.5" y="-417.55" font-family="Helvetica,sans-Serif" font-weight="bold" font-size="11.00">Applications</text>
</g>
<g id="clust2" class="cluster">
<title>cluster_db_adapters</title>
<polygon fill="#87ceeb" fill-opacity="0.133333" stroke="#87ceeb" points="138.25,-440 138.25,-566 447.12,-566 447.12,-440 138.25,-440"/>
<text xml:space="preserve" text-anchor="middle" x="292.69" y="-551.55" font-family="Helvetica,sans-Serif" font-weight="bold" font-size="11.00">Database Adapters</text>
</g>
<g id="clust3" class="cluster">
<title>cluster_core</title>
<polygon fill="#ffd700" fill-opacity="0.133333" stroke="#ffd700" points="477.88,-486 477.88,-612 572.88,-612 572.88,-486 477.88,-486"/>
<text xml:space="preserve" text-anchor="middle" x="525.38" y="-597.55" font-family="Helvetica,sans-Serif" font-weight="bold" font-size="11.00">Core</text>
</g>
<g id="clust4" class="cluster">
<title>cluster_dialects</title>
<polygon fill="#b0e0e6" fill-opacity="0.133333" stroke="#b0e0e6" points="319.5,-8 319.5,-134 576.25,-134 576.25,-8 319.5,-8"/>
<text xml:space="preserve" text-anchor="middle" x="447.88" y="-119.55" font-family="Helvetica,sans-Serif" font-weight="bold" font-size="11.00">Database Dialects</text>
</g>
<g id="clust5" class="cluster">
<title>cluster_publishers</title>
<polygon fill="#dda0dd" fill-opacity="0.133333" stroke="#dda0dd" points="153.25,-142 153.25,-268 441.88,-268 441.88,-142 153.25,-142"/>
<text xml:space="preserve" text-anchor="middle" x="297.56" y="-253.55" font-family="Helvetica,sans-Serif" font-weight="bold" font-size="11.00">Event Publishers</text>
</g>
<g id="clust6" class="cluster">
<title>cluster_sdk</title>
<polygon fill="#ffa07a" fill-opacity="0.133333" stroke="#ffa07a" points="168.62,-646 168.62,-718 418.12,-718 418.12,-646 168.62,-646"/>
<text xml:space="preserve" text-anchor="middle" x="293.38" y="-703.55" font-family="Helvetica,sans-Serif" font-weight="bold" font-size="11.00">SDKs</text>
</g>
<g id="clust7" class="cluster">
<title>cluster_legend</title>
<polygon fill="white" stroke="lightgray" points="8,-794 8,-891 453.5,-891 453.5,-794 8,-794"/>
<text xml:space="preserve" text-anchor="middle" x="230.75" y="-876.55" font-family="Helvetica,sans-Serif" font-weight="bold" font-size="11.00">Legend</text>
</g>
<!-- api -->
<g id="node1" class="node">
<title>api</title>
<polygon fill="#90ee90" stroke="black" points="242,-404 188,-404 188,-368 242,-368 242,-404"/>
<text xml:space="preserve" text-anchor="middle" x="215" y="-380.2" font-family="Helvetica,sans-Serif" font-size="14.00">api</text>
</g>
<!-- db&#45;adapter&#45;core -->
<g id="node3" class="node">
<title>db&#45;adapter&#45;core</title>
<polygon fill="#87ceeb" stroke="black" points="439.12,-484 327.12,-484 327.12,-448 439.12,-448 439.12,-484"/>
<text xml:space="preserve" text-anchor="middle" x="383.12" y="-460.2" font-family="Helvetica,sans-Serif" font-size="14.00">db&#45;adapter&#45;core</text>
</g>
<!-- api&#45;&gt;db&#45;adapter&#45;core -->
<g id="edge1" class="edge">
<title>api&#45;&gt;db&#45;adapter&#45;core</title>
<path fill="none" stroke="#7f7f7f" d="M242.32,-398.68C266.79,-410.46 303.85,-428.3 333.66,-442.66"/>
<polygon fill="#7f7f7f" stroke="#7f7f7f" points="331.98,-445.74 342.51,-446.92 335.02,-439.43 331.98,-445.74"/>
</g>
<!-- worker -->
<g id="node2" class="node">
<title>worker</title>
<polygon fill="#90ee90" stroke="black" points="243.25,-350 186.75,-350 186.75,-314 243.25,-314 243.25,-350"/>
<text xml:space="preserve" text-anchor="middle" x="215" y="-326.2" font-family="Helvetica,sans-Serif" font-size="14.00">worker</text>
</g>
<!-- worker&#45;&gt;db&#45;adapter&#45;core -->
<g id="edge30" class="edge">
<title>worker&#45;&gt;db&#45;adapter&#45;core</title>
<path fill="none" stroke="#7f7f7f" d="M243.44,-339.8C256.35,-344.23 271.55,-350.59 283.75,-359 315.53,-380.9 344.45,-414.82 362.58,-438.58"/>
<polygon fill="#7f7f7f" stroke="#7f7f7f" points="359.75,-440.64 368.53,-446.55 365.36,-436.45 359.75,-440.64"/>
</g>
<!-- publisher&#45;core -->
<g id="node11" class="node">
<title>publisher&#45;core</title>
<polygon fill="#dda0dd" stroke="black" points="433.88,-213 332.38,-213 332.38,-177 433.88,-177 433.88,-213"/>
<text xml:space="preserve" text-anchor="middle" x="383.12" y="-189.2" font-family="Helvetica,sans-Serif" font-size="14.00">publisher&#45;core</text>
</g>
<!-- worker&#45;&gt;publisher&#45;core -->
<g id="edge31" class="edge">
<title>worker&#45;&gt;publisher&#45;core</title>
<path fill="none" stroke="#7f7f7f" d="M238.4,-313.52C267.47,-289.56 318.31,-247.62 351.08,-220.6"/>
<polygon fill="#7f7f7f" stroke="#7f7f7f" points="353.16,-223.43 358.64,-214.36 348.7,-218.03 353.16,-223.43"/>
</g>
<!-- schema -->
<g id="node6" class="node">
<title>schema</title>
<polygon fill="#ffd700" stroke="black" points="557.38,-530 493.38,-530 493.38,-494 557.38,-494 557.38,-530"/>
<text xml:space="preserve" text-anchor="middle" x="525.38" y="-506.2" font-family="Helvetica,sans-Serif" font-size="14.00">schema</text>
</g>
<!-- db&#45;adapter&#45;core&#45;&gt;schema -->
<g id="edge2" class="edge">
<title>db&#45;adapter&#45;core&#45;&gt;schema</title>
<path fill="none" stroke="#7f7f7f" d="M439.56,-484.18C453.79,-488.85 468.87,-493.8 482.31,-498.2"/>
<polygon fill="#7f7f7f" stroke="#7f7f7f" points="481.13,-501.5 491.72,-501.29 483.31,-494.85 481.13,-501.5"/>
</g>
<!-- db&#45;adapter&#45;mysql -->
<g id="node4" class="node">
<title>db&#45;adapter&#45;mysql</title>
<polygon fill="#87ceeb" stroke="black" points="275.88,-484 154.12,-484 154.12,-448 275.88,-448 275.88,-484"/>
<text xml:space="preserve" text-anchor="middle" x="215" y="-460.2" font-family="Helvetica,sans-Serif" font-size="14.00">db&#45;adapter&#45;mysql</text>
</g>
<!-- db&#45;adapter&#45;mysql&#45;&gt;db&#45;adapter&#45;core -->
<g id="edge3" class="edge">
<title>db&#45;adapter&#45;mysql&#45;&gt;db&#45;adapter&#45;core</title>
<path fill="none" stroke="#7f7f7f" d="M275.97,-466C288.77,-466 302.36,-466 315.39,-466"/>
<polygon fill="#7f7f7f" stroke="#7f7f7f" points="315.15,-469.5 325.15,-466 315.15,-462.5 315.15,-469.5"/>
</g>
<!-- db&#45;adapter&#45;mysql&#45;&gt;schema -->
<g id="edge5" class="edge">
<title>db&#45;adapter&#45;mysql&#45;&gt;schema</title>
<path fill="none" stroke="#7f7f7f" d="M276.11,-483.44C290.25,-487.05 305.33,-490.51 319.5,-493 375.02,-502.75 439.93,-507.7 481.57,-510.06"/>
<polygon fill="#7f7f7f" stroke="#7f7f7f" points="481.24,-513.55 491.41,-510.59 481.62,-506.56 481.24,-513.55"/>
</g>
<!-- migrations -->
<g id="node7" class="node">
<title>migrations</title>
<polygon fill="#ffd700" stroke="black" points="564.88,-584 485.88,-584 485.88,-548 564.88,-548 564.88,-584"/>
<text xml:space="preserve" text-anchor="middle" x="525.38" y="-560.2" font-family="Helvetica,sans-Serif" font-size="14.00">migrations</text>
</g>
<!-- db&#45;adapter&#45;mysql&#45;&gt;migrations -->
<g id="edge4" class="edge">
<title>db&#45;adapter&#45;mysql&#45;&gt;migrations</title>
<path fill="none" stroke="#7f7f7f" d="M265.29,-484.48C271.58,-487.18 277.87,-490.04 283.75,-493 300.42,-501.37 302.3,-507.77 319.5,-515 370.26,-536.33 432,-550.19 474.35,-558"/>
<polygon fill="#7f7f7f" stroke="#7f7f7f" points="473.54,-561.41 484,-559.73 474.77,-554.52 473.54,-561.41"/>
</g>
<!-- db&#45;adapter&#45;postgres -->
<g id="node5" class="node">
<title>db&#45;adapter&#45;postgres</title>
<polygon fill="#87ceeb" stroke="black" points="283.75,-538 146.25,-538 146.25,-502 283.75,-502 283.75,-538"/>
<text xml:space="preserve" text-anchor="middle" x="215" y="-514.2" font-family="Helvetica,sans-Serif" font-size="14.00">db&#45;adapter&#45;postgres</text>
</g>
<!-- db&#45;adapter&#45;postgres&#45;&gt;db&#45;adapter&#45;core -->
<g id="edge6" class="edge">
<title>db&#45;adapter&#45;postgres&#45;&gt;db&#45;adapter&#45;core</title>
<path fill="none" stroke="#7f7f7f" d="M272.71,-501.57C286.64,-497.04 301.67,-492.15 316.01,-487.49"/>
<polygon fill="#7f7f7f" stroke="#7f7f7f" points="316.93,-490.87 325.36,-484.45 314.77,-484.21 316.93,-490.87"/>
</g>
<!-- db&#45;adapter&#45;postgres&#45;&gt;schema -->
<g id="edge8" class="edge">
<title>db&#45;adapter&#45;postgres&#45;&gt;schema</title>
<path fill="none" stroke="#7f7f7f" d="M284.24,-526.15C331.79,-529.35 396.65,-531.56 453.5,-526 462.82,-525.09 472.73,-523.52 482.09,-521.75"/>
<polygon fill="#7f7f7f" stroke="#7f7f7f" points="482.57,-525.23 491.69,-519.83 481.19,-518.36 482.57,-525.23"/>
</g>
<!-- db&#45;adapter&#45;postgres&#45;&gt;migrations -->
<g id="edge7" class="edge">
<title>db&#45;adapter&#45;postgres&#45;&gt;migrations</title>
<path fill="none" stroke="#7f7f7f" d="M278.9,-538.48C328.53,-552.03 399.76,-569.18 463.5,-576 466.96,-576.37 470.51,-576.48 474.09,-576.4"/>
<polygon fill="#7f7f7f" stroke="#7f7f7f" points="474.27,-579.9 483.98,-575.66 473.75,-572.92 474.27,-579.9"/>
</g>
<!-- dialect&#45;core -->
<g id="node8" class="node">
<title>dialect&#45;core</title>
<polygon fill="#b0e0e6" stroke="black" points="568.25,-106 482.5,-106 482.5,-70 568.25,-70 568.25,-106"/>
<text xml:space="preserve" text-anchor="middle" x="525.38" y="-82.2" font-family="Helvetica,sans-Serif" font-size="14.00">dialect&#45;core</text>
</g>
<!-- dialect&#45;mysql -->
<g id="node9" class="node">
<title>dialect&#45;mysql</title>
<polygon fill="#b0e0e6" stroke="black" points="430.88,-106 335.38,-106 335.38,-70 430.88,-70 430.88,-106"/>
<text xml:space="preserve" text-anchor="middle" x="383.12" y="-82.2" font-family="Helvetica,sans-Serif" font-size="14.00">dialect&#45;mysql</text>
</g>
<!-- dialect&#45;mysql&#45;&gt;schema -->
<g id="edge10" class="edge">
<title>dialect&#45;mysql&#45;&gt;schema</title>
<path fill="none" stroke="#7f7f7f" d="M421.57,-106.4C433.83,-114.37 446.17,-124.92 453.5,-138 468.09,-164.05 458.7,-242.53 463.5,-272 476.06,-349.11 501.47,-437.71 515.15,-482.61"/>
<polygon fill="#7f7f7f" stroke="#7f7f7f" points="511.79,-483.59 518.08,-492.11 518.48,-481.53 511.79,-483.59"/>
</g>
<!-- dialect&#45;mysql&#45;&gt;dialect&#45;core -->
<g id="edge9" class="edge">
<title>dialect&#45;mysql&#45;&gt;dialect&#45;core</title>
<path fill="none" stroke="#7f7f7f" d="M431.22,-88C444.02,-88 457.97,-88 471.09,-88"/>
<polygon fill="#7f7f7f" stroke="#7f7f7f" points="470.84,-91.5 480.84,-88 470.84,-84.5 470.84,-91.5"/>
</g>
<!-- dialect&#45;postgres -->
<g id="node10" class="node">
<title>dialect&#45;postgres</title>
<polygon fill="#b0e0e6" stroke="black" points="438.75,-52 327.5,-52 327.5,-16 438.75,-16 438.75,-52"/>
<text xml:space="preserve" text-anchor="middle" x="383.12" y="-28.2" font-family="Helvetica,sans-Serif" font-size="14.00">dialect&#45;postgres</text>
</g>
<!-- dialect&#45;postgres&#45;&gt;schema -->
<g id="edge12" class="edge">
<title>dialect&#45;postgres&#45;&gt;schema</title>
<path fill="none" stroke="#7f7f7f" d="M439.06,-48.73C444.54,-52.03 449.53,-56.07 453.5,-61 480.1,-94.05 511.79,-387.31 521.44,-482.39"/>
<polygon fill="#7f7f7f" stroke="#7f7f7f" points="517.94,-482.6 522.43,-492.2 524.91,-481.9 517.94,-482.6"/>
</g>
<!-- dialect&#45;postgres&#45;&gt;dialect&#45;core -->
<g id="edge11" class="edge">
<title>dialect&#45;postgres&#45;&gt;dialect&#45;core</title>
<path fill="none" stroke="#7f7f7f" d="M432,-52.43C444.77,-57.35 458.64,-62.69 471.65,-67.7"/>
<polygon fill="#7f7f7f" stroke="#7f7f7f" points="470.34,-70.95 480.93,-71.27 472.86,-64.41 470.34,-70.95"/>
</g>
<!-- publisher&#45;core&#45;&gt;schema -->
<g id="edge13" class="edge">
<title>publisher&#45;core&#45;&gt;schema</title>
<path fill="none" stroke="#7f7f7f" d="M392.27,-213.41C415.7,-266.38 483.41,-419.4 511.71,-483.37"/>
<polygon fill="#7f7f7f" stroke="#7f7f7f" points="508.35,-484.42 515.59,-492.15 514.75,-481.59 508.35,-484.42"/>
</g>
<!-- publisher&#45;http -->
<g id="node12" class="node">
<title>publisher&#45;http</title>
<polygon fill="#dda0dd" stroke="black" points="263.88,-240 166.12,-240 166.12,-204 263.88,-204 263.88,-240"/>
<text xml:space="preserve" text-anchor="middle" x="215" y="-216.2" font-family="Helvetica,sans-Serif" font-size="14.00">publisher&#45;http</text>
</g>
<!-- publisher&#45;http&#45;&gt;publisher&#45;core -->
<g id="edge14" class="edge">
<title>publisher&#45;http&#45;&gt;publisher&#45;core</title>
<path fill="none" stroke="#7f7f7f" d="M264.05,-214.19C281.83,-211.3 302.23,-207.99 321.02,-204.93"/>
<polygon fill="#7f7f7f" stroke="#7f7f7f" points="321.36,-208.42 330.67,-203.36 320.23,-201.51 321.36,-208.42"/>
</g>
<!-- publisher&#45;kafka -->
<g id="node13" class="node">
<title>publisher&#45;kafka</title>
<polygon fill="#dda0dd" stroke="black" points="268.75,-186 161.25,-186 161.25,-150 268.75,-150 268.75,-186"/>
<text xml:space="preserve" text-anchor="middle" x="215" y="-162.2" font-family="Helvetica,sans-Serif" font-size="14.00">publisher&#45;kafka</text>
</g>
<!-- publisher&#45;kafka&#45;&gt;publisher&#45;core -->
<g id="edge15" class="edge">
<title>publisher&#45;kafka&#45;&gt;publisher&#45;core</title>
<path fill="none" stroke="#7f7f7f" d="M269.02,-176.62C285.61,-179.31 304.05,-182.31 321.14,-185.09"/>
<polygon fill="#7f7f7f" stroke="#7f7f7f" points="320.23,-188.49 330.66,-186.63 321.35,-181.58 320.23,-188.49"/>
</g>
<!-- sdk -->
<g id="node14" class="node">
<title>sdk</title>
<polygon fill="#ffa07a" stroke="black" points="410.12,-690 356.12,-690 356.12,-654 410.12,-654 410.12,-690"/>
<text xml:space="preserve" text-anchor="middle" x="383.12" y="-666.2" font-family="Helvetica,sans-Serif" font-size="14.00">sdk</text>
</g>
<!-- sdk&#45;&gt;schema -->
<g id="edge17" class="edge">
<title>sdk&#45;&gt;schema</title>
<path fill="none" stroke="#7f7f7f" d="M410.48,-654.34C428.4,-640.96 451.2,-620.98 464.5,-598 477.97,-574.73 461.95,-560.67 477.88,-539 479.74,-536.46 481.92,-534.12 484.31,-531.98"/>
<polygon fill="#7f7f7f" stroke="#7f7f7f" points="485.93,-535.13 491.8,-526.31 481.71,-529.55 485.93,-535.13"/>
</g>
<!-- sdk&#45;&gt;dialect&#45;core -->
<g id="edge16" class="edge">
<title>sdk&#45;&gt;dialect&#45;core</title>
<path fill="none" stroke="#7f7f7f" d="M400.52,-653.56C416.77,-634.19 440.98,-602.13 453.5,-570 486.13,-486.27 513.42,-209.48 521.76,-117.79"/>
<polygon fill="#7f7f7f" stroke="#7f7f7f" points="525.24,-118.14 522.65,-107.86 518.27,-117.51 525.24,-118.14"/>
</g>
<!-- sdk&#45;nestjs -->
<g id="node15" class="node">
<title>sdk&#45;nestjs</title>
<polygon fill="#ffa07a" stroke="black" points="253.38,-690 176.62,-690 176.62,-654 253.38,-654 253.38,-690"/>
<text xml:space="preserve" text-anchor="middle" x="215" y="-666.2" font-family="Helvetica,sans-Serif" font-size="14.00">sdk&#45;nestjs</text>
</g>
<!-- sdk&#45;nestjs&#45;&gt;sdk -->
<g id="edge18" class="edge">
<title>sdk&#45;nestjs&#45;&gt;sdk</title>
<path fill="none" stroke="#7f7f7f" d="M253.7,-672C280.8,-672 317.19,-672 344.32,-672"/>
<polygon fill="#7f7f7f" stroke="#7f7f7f" points="344.18,-675.5 354.18,-672 344.18,-668.5 344.18,-675.5"/>
</g>
<!-- server -->
<g id="node16" class="node">
<title>server</title>
<polygon fill="lightgray" stroke="black" points="89.62,-384 35.62,-384 35.62,-348 89.62,-348 89.62,-384"/>
<text xml:space="preserve" text-anchor="middle" x="62.62" y="-360.2" font-family="Helvetica,sans-Serif" font-size="14.00">server</text>
</g>
<!-- server&#45;&gt;api -->
<g id="edge19" class="edge">
<title>server&#45;&gt;api</title>
<path fill="none" stroke="#7f7f7f" d="M89.82,-369.48C113.71,-372.66 149.3,-377.4 176.27,-380.98"/>
<polygon fill="#7f7f7f" stroke="#7f7f7f" points="175.73,-384.44 186.1,-382.29 176.65,-377.5 175.73,-384.44"/>
</g>
<!-- server&#45;&gt;worker -->
<g id="edge20" class="edge">
<title>server&#45;&gt;worker</title>
<path fill="none" stroke="#7f7f7f" d="M89.82,-360.08C113.45,-354.73 148.53,-346.8 175.38,-340.73"/>
<polygon fill="#7f7f7f" stroke="#7f7f7f" points="175.87,-344.21 184.85,-338.59 174.32,-337.38 175.87,-344.21"/>
</g>
<!-- server&#45;&gt;db&#45;adapter&#45;core -->
<g id="edge21" class="edge">
<title>server&#45;&gt;db&#45;adapter&#45;core</title>
<path fill="none" stroke="#7f7f7f" d="M78.25,-347.66C91.89,-332.15 113.76,-311.06 138.25,-302 198.9,-279.56 227.48,-270.14 283.75,-302 334.89,-330.96 362.35,-398.29 374.42,-437.08"/>
<polygon fill="#7f7f7f" stroke="#7f7f7f" points="370.93,-437.62 377.12,-446.21 377.64,-435.63 370.93,-437.62"/>
</g>
<!-- server&#45;&gt;db&#45;adapter&#45;mysql -->
<g id="edge23" class="edge">
<title>server&#45;&gt;db&#45;adapter&#45;mysql</title>
<path fill="none" stroke="#7f7f7f" d="M79.56,-384.42C93.71,-399.86 115.6,-421.63 138.25,-436 141.97,-438.36 145.91,-440.59 149.96,-442.69"/>
<polygon fill="#7f7f7f" stroke="#7f7f7f" points="148.3,-445.77 158.82,-446.97 151.34,-439.47 148.3,-445.77"/>
</g>
<!-- server&#45;&gt;db&#45;adapter&#45;postgres -->
<g id="edge22" class="edge">
<title>server&#45;&gt;db&#45;adapter&#45;postgres</title>
<path fill="none" stroke="#7f7f7f" d="M69.74,-384.27C79.8,-411.66 102.38,-463.34 138.25,-493 139.22,-493.8 140.21,-494.58 141.23,-495.33"/>
<polygon fill="#7f7f7f" stroke="#7f7f7f" points="139.33,-498.27 149.63,-500.73 143.11,-492.38 139.33,-498.27"/>
</g>
<!-- server&#45;&gt;schema -->
<g id="edge27" class="edge">
<title>server&#45;&gt;schema</title>
<path fill="none" stroke="#7f7f7f" d="M64.54,-384.33C68.27,-450.96 84.82,-678.61 138.25,-722 192.63,-766.16 400.79,-768.15 453.5,-722 484.37,-694.97 455.1,-573.12 477.88,-539 479.67,-536.31 481.84,-533.85 484.24,-531.61"/>
<polygon fill="#7f7f7f" stroke="#7f7f7f" points="486.08,-534.6 491.9,-525.74 481.83,-529.04 486.08,-534.6"/>
</g>
<!-- server&#45;&gt;migrations -->
<g id="edge28" class="edge">
<title>server&#45;&gt;migrations</title>
<path fill="none" stroke="#7f7f7f" d="M64,-384.21C65.9,-454.9 76.97,-709.29 138.25,-753 195.28,-793.68 396.79,-794.13 453.5,-753 504.26,-716.19 518.67,-638.25 522.76,-595.53"/>
<polygon fill="#7f7f7f" stroke="#7f7f7f" points="526.24,-595.99 523.56,-585.74 519.26,-595.42 526.24,-595.99"/>
</g>
<!-- server&#45;&gt;publisher&#45;core -->
<g id="edge24" class="edge">
<title>server&#45;&gt;publisher&#45;core</title>
<path fill="none" stroke="#7f7f7f" d="M65.65,-347.78C72.36,-291.07 95.89,-119.52 138.25,-87 189.54,-47.62 226.38,-57.16 283.75,-87 308.31,-99.78 301.21,-117.22 319.5,-138 329.06,-148.86 340.53,-159.8 351.03,-169.15"/>
<polygon fill="#7f7f7f" stroke="#7f7f7f" points="348.57,-171.65 358.41,-175.59 353.18,-166.38 348.57,-171.65"/>
</g>
<!-- server&#45;&gt;publisher&#45;http -->
<g id="edge25" class="edge">
<title>server&#45;&gt;publisher&#45;http</title>
<path fill="none" stroke="#7f7f7f" d="M72.81,-347.58C83.66,-327.19 103.3,-294.28 127.25,-272 137.9,-262.1 150.84,-253.33 163.46,-246.01"/>
<polygon fill="#7f7f7f" stroke="#7f7f7f" points="165.08,-249.11 172.12,-241.19 161.68,-242.99 165.08,-249.11"/>
</g>
<!-- server&#45;&gt;publisher&#45;kafka -->
<g id="edge26" class="edge">
<title>server&#45;&gt;publisher&#45;kafka</title>
<path fill="none" stroke="#7f7f7f" d="M66.71,-347.51C73.44,-312.79 92.66,-237.54 138.25,-195 142.13,-191.38 146.53,-188.24 151.2,-185.52"/>
<polygon fill="#7f7f7f" stroke="#7f7f7f" points="152.42,-188.82 159.76,-181.18 149.26,-182.58 152.42,-188.82"/>
</g>
<!-- tracing -->
<g id="node17" class="node">
<title>tracing</title>
<polygon fill="lightgray" stroke="black" points="243.25,-132 186.75,-132 186.75,-96 243.25,-96 243.25,-132"/>
<text xml:space="preserve" text-anchor="middle" x="215" y="-108.2" font-family="Helvetica,sans-Serif" font-size="14.00">tracing</text>
</g>
<!-- tracing&#45;&gt;publisher&#45;core -->
<g id="edge29" class="edge">
<title>tracing&#45;&gt;publisher&#45;core</title>
<path fill="none" stroke="#7f7f7f" d="M243.49,-122.45C255.99,-126.62 270.84,-132.03 283.75,-138 304.22,-147.46 326,-159.82 343.86,-170.62"/>
<polygon fill="#7f7f7f" stroke="#7f7f7f" points="341.96,-173.56 352.32,-175.8 345.62,-167.59 341.96,-173.56"/>
</g>
<!-- l_direct -->
<g id="node18" class="node">
<title>l_direct</title>
<polygon fill="white" stroke="black" points="66.22,-809.6 59.02,-809.6 59.02,-802.4 66.22,-802.4 66.22,-809.6"/>
</g>
<!-- l_peer -->
<g id="node19" class="node">
<title>l_peer</title>
<polygon fill="white" stroke="black" points="218.6,-809.6 211.4,-809.6 211.4,-802.4 218.6,-802.4 218.6,-809.6"/>
</g>
<!-- l_direct&#45;&gt;l_peer -->
<!-- legend_direct -->
<g id="node21" class="node">
<title>legend_direct</title>
<polygon fill="white" stroke="#7f7f7f" points="106.29,-862.88 16,-862.88 16,-845.12 109.25,-845.12 109.25,-859.92 106.29,-862.88"/>
<polyline fill="none" stroke="#7f7f7f" points="106.29,-862.88 106.29,-859.92"/>
<polyline fill="none" stroke="#7f7f7f" points="109.25,-859.92 106.29,-859.92"/>
<text xml:space="preserve" text-anchor="middle" x="62.62" y="-850.33" font-family="Helvetica,sans-Serif" font-size="9.00">Direct dependency</text>
</g>
<!-- l_direct&#45;&gt;legend_direct -->
<g id="edge34" class="edge">
<title>l_direct&#45;&gt;legend_direct</title>
<path fill="none" stroke="#7f7f7f" d="M62.62,-810.09C62.62,-817.71 62.62,-834.24 62.62,-844.7"/>
<text xml:space="preserve" text-anchor="middle" x="55.12" y="-824.26" font-family="Helvetica,sans-Serif" font-size="8.00">solid line</text>
</g>
<!-- l_peer_opt -->
<g id="node20" class="node">
<title>l_peer_opt</title>
<polygon fill="white" stroke="black" points="386.73,-809.6 379.52,-809.6 379.52,-802.4 386.73,-802.4 386.73,-809.6"/>
</g>
<!-- l_peer&#45;&gt;l_peer_opt -->
<!-- legend_peer -->
<g id="node22" class="node">
<title>legend_peer</title>
<polygon fill="white" stroke="#4169e1" points="256.42,-862.88 170.62,-862.88 170.62,-845.12 259.38,-845.12 259.38,-859.92 256.42,-862.88"/>
<polyline fill="none" stroke="#4169e1" points="256.42,-862.88 256.42,-859.92"/>
<polyline fill="none" stroke="#4169e1" points="259.38,-859.92 256.42,-859.92"/>
<text xml:space="preserve" text-anchor="middle" x="215" y="-850.33" font-family="Helvetica,sans-Serif" font-size="9.00">Peer dependency</text>
</g>
<!-- l_peer&#45;&gt;legend_peer -->
<g id="edge35" class="edge">
<title>l_peer&#45;&gt;legend_peer</title>
<path fill="none" stroke="#4169e1" stroke-dasharray="5,2" d="M215,-810.09C215,-817.71 215,-834.24 215,-844.7"/>
<text xml:space="preserve" text-anchor="middle" x="207.5" y="-824.26" font-family="Helvetica,sans-Serif" font-size="8.00">dashed</text>
</g>
<!-- legend_optional -->
<g id="node23" class="node">
<title>legend_optional</title>
<polygon fill="white" stroke="#9370db" points="442.54,-862.88 320.75,-862.88 320.75,-845.12 445.5,-845.12 445.5,-859.92 442.54,-862.88"/>
<polyline fill="none" stroke="#9370db" points="442.54,-862.88 442.54,-859.92"/>
<polyline fill="none" stroke="#9370db" points="445.5,-859.92 442.54,-859.92"/>
<text xml:space="preserve" text-anchor="middle" x="383.12" y="-850.33" font-family="Helvetica,sans-Serif" font-size="9.00">Optional peer dependency</text>
</g>
<!-- l_peer_opt&#45;&gt;legend_optional -->
<g id="edge36" class="edge">
<title>l_peer_opt&#45;&gt;legend_optional</title>
<path fill="none" stroke="#9370db" stroke-dasharray="1,5" d="M383.12,-810.09C383.12,-817.71 383.12,-834.24 383.12,-844.7"/>
<text xml:space="preserve" text-anchor="middle" x="375.62" y="-824.26" font-family="Helvetica,sans-Serif" font-size="8.00">dotted</text>
</g>
</g>
</svg>
